<svg xmlns="http://www.w3.org/2000/svg" viewBox="0 0 249.02 89.72"><defs><style>.cls-1{fill:#231f20;}</style></defs><title>SUPP_MAIN</title><g id="Layer_2" data-name="Layer 2"><g id="Layer_1-2" data-name="Layer 1"><path class="cls-1" d="M32.51,25.82l-2-.68c-5.7-1.93-10.62-3.59-10.62-6.56v-.24c0-2.5,2.41-4.06,6.29-4.06,3.51,0,8.18,1.37,13.48,4a6.71,6.71,0,0,0,3.41.85,7.3,7.3,0,0,0,7.43-7.32,7.57,7.57,0,0,0-4.38-6.93A44.12,44.12,0,0,0,26.55,0C12.63,0,3.28,8.12,3.28,20.22v.23c0,11.94,9.12,16.26,19,19.15.8.25,1.6.48,2.38.71C30.46,42,35.06,43.4,35.06,46.6v.24c0,2.84-2.56,4.41-7.22,4.41-5.13,0-11.11-2-16.86-5.59a7.09,7.09,0,0,0-3.66-1A7.16,7.16,0,0,0,0,52a7.34,7.34,0,0,0,3.53,6.33,43.93,43.93,0,0,0,23.84,7.2c15.23,0,24.32-7.69,24.32-20.57v-.23C51.69,33.18,41.79,28.91,32.51,25.82Z"/><path class="cls-1" d="M139.4.46A32.73,32.73,0,0,0,106.86,30v0l0,.43c0,.4-.06.81-.08,1.21l-.18,2.75v.07l0,.65,0,0L106,81.82a7.81,7.81,0,0,0,7.71,7.9h.1a7.8,7.8,0,0,0,7.8-7.71l.25-21.28h0l.32-26.51c0-.35,0-.71,0-1.07a17.29,17.29,0,1,1,4.3,11.39V63.16a32.69,32.69,0,1,0,13-62.7Z"/><path class="cls-1" d="M199.31.46a32.71,32.71,0,0,0-27.42,14.9,36.34,36.34,0,0,1-5.72,43l-.28,23.45a7.81,7.81,0,0,0,7.71,7.9h.1A7.8,7.8,0,0,0,181.5,82l.25-21.28h0l.32-26.51c0-.35,0-.71,0-1.07a17.29,17.29,0,1,1,4.3,11.39V63.16a32.69,32.69,0,1,0,13-62.7Z"/><path class="cls-1" d="M103.09,34l0-.72v-.08l.2-3c0-.45.05-.9.08-1.34l0-.47h0A36.05,36.05,0,0,1,111.8,8.65V8.53A7.81,7.81,0,0,0,104.25.46H104A7.81,7.81,0,0,0,96.18,8l-.85,25.26a15.81,15.81,0,0,1-31.62-.53V8.34A7.82,7.82,0,0,0,49.55,3.77a9.35,9.35,0,0,1-1.47,17.56v7.59C53.26,32.29,57,37.06,57,44.6v.26a25.13,25.13,0,0,1-1.34,8.35,31.51,31.51,0,0,0,47.22.65L103.12,34Z"/><path class="cls-1" d="M9.43,81.17h2.33v.5a1.41,1.41,0,0,0,.18.8.78.78,0,0,0,.7.35c.49,0,.84-.32.84-1V77.26H10.92v-2h4.89v6.59A3,3,0,0,1,12.61,85a3,3,0,0,1-3.18-3.09Z"/><path class="cls-1" d="M19.13,75.27h2.33v6a1.46,1.46,0,0,0,1.65,1.53,1.46,1.46,0,0,0,1.65-1.53v-6h2.33v6a3.63,3.63,0,0,1-4,3.66c-2.42,0-4-1.52-4-3.66Z"/><path class="cls-1" d="M31.05,81.82a4,4,0,0,0,2.28,1c.48,0,1-.19,1-.76,0-1.14-4.29-1.1-4.29-4,0-1.75,1.48-2.91,3.37-2.91a4.31,4.31,0,0,1,3.06,1.08l-1,1.9a3.64,3.64,0,0,0-2.11-.84c-.48,0-1,.21-1,.75,0,1.2,4.29,1,4.29,4,0,1.59-1.21,3-3.36,3a4.91,4.91,0,0,1-3.47-1.36Z"/><path class="cls-1" d="M41.42,77.26H38.53v-2h8.11v2H43.75v7.53H41.42Z"/><path class="cls-1" d="M52.69,75.27h2.45l1.2,6a5.55,5.55,0,0,1,.12,1h0a5,5,0,0,1,.16-1l1.46-6H60l1.43,6a6.08,6.08,0,0,1,.16,1h0a5.55,5.55,0,0,1,.12-1l1.31-6h2.41L63,84.79h-2.6L59.23,80a8.6,8.6,0,0,1-.18-1.12h0A7.79,7.79,0,0,1,58.83,80l-1.2,4.81H55Z"/><path class="cls-1" d="M68.16,75.27h2.33v3.81H74V75.27h2.33v9.52H74V81.06H70.49v3.73H68.16Z"/><path class="cls-1" d="M84.63,82.79h-3l-.57,2h-2.4l3.24-9.52h2.45l3.23,9.52H85.22Zm-1.49-5.35s-.22,1-.39,1.64l-.54,1.85h1.87l-.53-1.85c-.17-.6-.39-1.64-.39-1.64Z"/><path class="cls-1" d="M91.33,77.26H88.44v-2h8.11v2H93.66v7.53H91.33Z"/><path class="cls-1" d="M129.54,80.89l-3.14-5.62h2.65l1.08,2.29c.31.65.57,1.37.57,1.37h0s.27-.72.57-1.37l1.07-2.29H135l-3.14,5.62v3.9h-2.34Z"/><path class="cls-1" d="M141.54,75.11a4.82,4.82,0,0,1,5,4.86,5,5,0,0,1-10,0A4.82,4.82,0,0,1,141.54,75.11Zm0,7.71A2.69,2.69,0,0,0,144.11,80,2.57,2.57,0,1,0,139,80,2.69,2.69,0,0,0,141.54,82.82Z"/><path class="cls-1" d="M149.31,75.27h2.33v6a1.65,1.65,0,0,0,3.3,0v-6h2.33v6a3.63,3.63,0,0,1-4,3.66c-2.42,0-4-1.52-4-3.66Z"/><path class="cls-1" d="M186.56,75.43h2.36l2.64,4.45a17.33,17.33,0,0,1,.8,1.62h0s-.11-1-.11-1.62V75.43h2.33V85h-2.34l-2.66-4.44a16.22,16.22,0,0,1-.79-1.62h0s.11,1,.11,1.62V85h-2.34Z"/><path class="cls-1" d="M198.18,75.43h6v2h-3.64v1.74h2.91v2h-2.91V83h3.83v2h-6.16Z"/><path class="cls-1" d="M207.35,75.43h6v2h-3.64v1.74h2.91v2h-2.91V83h3.83v2h-6.16Z"/><path class="cls-1" d="M216.52,75.43h3.38c3,0,4.92,1.74,4.92,4.74S222.9,85,219.9,85h-3.38ZM219.81,83a2.77,2.77,0,0,0,0-5.53h-1V83Z"/><path d="M234.55,2.07V.67h6v1.4h-2.27V8.85h-1.51V2.07Z"/><path d="M241.75,8.85V.67h1.7l1.93,5.1,1.93-5.1H249V8.85H247.5v-5l-1.57,4.3h-1.1l-1.56-4.3V8.85Z"/></g></g></svg>